<mxfile host="app.diagrams.net" agent="Mozilla/5.0 (Macintosh; Intel Mac OS X 10_15_7) AppleWebKit/537.36 (KHTML, like Gecko) Chrome/134.0.0.0 Safari/537.36" version="26.1.3">
  <diagram name="Page-1" id="3qT_QIZaKxsjeAIVdN1j">
    <mxGraphModel dx="1193" dy="1968" grid="1" gridSize="10" guides="1" tooltips="1" connect="1" arrows="1" fold="1" page="1" pageScale="1" pageWidth="827" pageHeight="1169" math="0" shadow="0">
      <root>
        <mxCell id="0" />
        <mxCell id="1" parent="0" />
        <mxCell id="B8D3fQR5BTclV4-2yra1-51" style="edgeStyle=orthogonalEdgeStyle;rounded=0;orthogonalLoop=1;jettySize=auto;html=1;entryX=0.5;entryY=0;entryDx=0;entryDy=0;" edge="1" parent="1" source="B8D3fQR5BTclV4-2yra1-54" target="B8D3fQR5BTclV4-2yra1-35">
          <mxGeometry relative="1" as="geometry" />
        </mxCell>
        <mxCell id="B8D3fQR5BTclV4-2yra1-52" value="&lt;b&gt;tosl:condition&lt;/b&gt;" style="edgeLabel;html=1;align=center;verticalAlign=middle;resizable=0;points=[];" vertex="1" connectable="0" parent="B8D3fQR5BTclV4-2yra1-51">
          <mxGeometry x="-0.0301" y="4" relative="1" as="geometry">
            <mxPoint x="-4" y="-55" as="offset" />
          </mxGeometry>
        </mxCell>
        <mxCell id="B8D3fQR5BTclV4-2yra1-164" style="edgeStyle=orthogonalEdgeStyle;rounded=0;orthogonalLoop=1;jettySize=auto;html=1;exitX=0.75;exitY=1;exitDx=0;exitDy=0;entryX=0.75;entryY=0;entryDx=0;entryDy=0;" edge="1" parent="1" source="B8D3fQR5BTclV4-2yra1-54" target="B8D3fQR5BTclV4-2yra1-40">
          <mxGeometry relative="1" as="geometry" />
        </mxCell>
        <mxCell id="B8D3fQR5BTclV4-2yra1-165" value="&lt;b style=&quot;background-color: rgb(255, 255, 255);&quot;&gt;tosl:targetParty&lt;/b&gt;" style="edgeLabel;html=1;align=center;verticalAlign=middle;resizable=0;points=[];" vertex="1" connectable="0" parent="B8D3fQR5BTclV4-2yra1-164">
          <mxGeometry x="-0.1007" y="-1" relative="1" as="geometry">
            <mxPoint x="2" y="-15" as="offset" />
          </mxGeometry>
        </mxCell>
        <mxCell id="B8D3fQR5BTclV4-2yra1-1" value="&lt;span style=&quot;font-size: 13px;&quot;&gt;tosl:remove&lt;/span&gt;" style="rounded=1;whiteSpace=wrap;html=1;fillColor=#dae8fc;strokeColor=#6c8ebf;" vertex="1" parent="1">
          <mxGeometry x="99" y="561" width="160" height="40" as="geometry" />
        </mxCell>
        <mxCell id="B8D3fQR5BTclV4-2yra1-2" value="&lt;span style=&quot;font-size: 13px;&quot;&gt;tosl:consent&lt;/span&gt;" style="rounded=1;whiteSpace=wrap;html=1;fillColor=#dae8fc;strokeColor=#6c8ebf;" vertex="1" parent="1">
          <mxGeometry x="109" y="591" width="160" height="40" as="geometry" />
        </mxCell>
        <mxCell id="B8D3fQR5BTclV4-2yra1-3" style="rounded=0;orthogonalLoop=1;jettySize=auto;html=1;entryX=0;entryY=1;entryDx=0;entryDy=0;exitX=1;exitY=0;exitDx=0;exitDy=0;" edge="1" parent="1" source="B8D3fQR5BTclV4-2yra1-54" target="B8D3fQR5BTclV4-2yra1-44">
          <mxGeometry relative="1" as="geometry" />
        </mxCell>
        <mxCell id="B8D3fQR5BTclV4-2yra1-4" value="&lt;b&gt;tosl:governedBy&lt;/b&gt;" style="edgeLabel;html=1;align=center;verticalAlign=middle;resizable=0;points=[];" vertex="1" connectable="0" parent="B8D3fQR5BTclV4-2yra1-3">
          <mxGeometry x="0.1055" y="4" relative="1" as="geometry">
            <mxPoint x="12" as="offset" />
          </mxGeometry>
        </mxCell>
        <mxCell id="B8D3fQR5BTclV4-2yra1-5" style="rounded=0;orthogonalLoop=1;jettySize=auto;html=1;entryX=0.5;entryY=1;entryDx=0;entryDy=0;exitX=0.5;exitY=0;exitDx=0;exitDy=0;" edge="1" parent="1" source="B8D3fQR5BTclV4-2yra1-54" target="B8D3fQR5BTclV4-2yra1-43">
          <mxGeometry relative="1" as="geometry" />
        </mxCell>
        <mxCell id="B8D3fQR5BTclV4-2yra1-6" style="edgeStyle=orthogonalEdgeStyle;rounded=0;orthogonalLoop=1;jettySize=auto;html=1;entryX=0;entryY=0.5;entryDx=0;entryDy=0;" edge="1" parent="1" source="B8D3fQR5BTclV4-2yra1-8" target="B8D3fQR5BTclV4-2yra1-54">
          <mxGeometry relative="1" as="geometry" />
        </mxCell>
        <mxCell id="B8D3fQR5BTclV4-2yra1-7" value="&lt;b&gt;tosl:onDispute&lt;/b&gt;" style="edgeLabel;html=1;align=center;verticalAlign=middle;resizable=0;points=[];" vertex="1" connectable="0" parent="B8D3fQR5BTclV4-2yra1-6">
          <mxGeometry x="0.0349" y="1" relative="1" as="geometry">
            <mxPoint x="-3" y="-12" as="offset" />
          </mxGeometry>
        </mxCell>
        <mxCell id="B8D3fQR5BTclV4-2yra1-8" value="&lt;font style=&quot;font-size: 13px;&quot;&gt;odrl:Policy&lt;/font&gt;" style="rounded=1;whiteSpace=wrap;html=1;" vertex="1" parent="1">
          <mxGeometry x="315" y="100" width="125" height="50" as="geometry" />
        </mxCell>
        <mxCell id="B8D3fQR5BTclV4-2yra1-9" style="rounded=0;orthogonalLoop=1;jettySize=auto;html=1;entryX=0.5;entryY=1;entryDx=0;entryDy=0;endArrow=block;endFill=0;endSize=8;" edge="1" parent="1" source="B8D3fQR5BTclV4-2yra1-12" target="B8D3fQR5BTclV4-2yra1-8">
          <mxGeometry relative="1" as="geometry" />
        </mxCell>
        <mxCell id="B8D3fQR5BTclV4-2yra1-10" style="edgeStyle=orthogonalEdgeStyle;rounded=0;orthogonalLoop=1;jettySize=auto;html=1;startArrow=none;startFill=0;startSize=9;" edge="1" parent="1" source="B8D3fQR5BTclV4-2yra1-12" target="B8D3fQR5BTclV4-2yra1-18">
          <mxGeometry relative="1" as="geometry">
            <Array as="points">
              <mxPoint x="378" y="300" />
              <mxPoint x="378" y="300" />
            </Array>
          </mxGeometry>
        </mxCell>
        <mxCell id="B8D3fQR5BTclV4-2yra1-11" value="odrl:permision&lt;div&gt;odrl:obligation&lt;/div&gt;&lt;div&gt;odrl:prohibition&lt;/div&gt;" style="edgeLabel;html=1;align=center;verticalAlign=middle;resizable=0;points=[];" vertex="1" connectable="0" parent="B8D3fQR5BTclV4-2yra1-10">
          <mxGeometry x="-0.664" y="-1" relative="1" as="geometry">
            <mxPoint x="-41" y="14" as="offset" />
          </mxGeometry>
        </mxCell>
        <mxCell id="B8D3fQR5BTclV4-2yra1-12" value="&lt;font style=&quot;font-size: 13px;&quot;&gt;odrl:Agreement&lt;/font&gt;" style="rounded=1;whiteSpace=wrap;html=1;" vertex="1" parent="1">
          <mxGeometry x="315" y="220" width="125" height="50" as="geometry" />
        </mxCell>
        <mxCell id="B8D3fQR5BTclV4-2yra1-13" style="rounded=0;orthogonalLoop=1;jettySize=auto;html=1;exitX=1;exitY=0.5;exitDx=0;exitDy=0;entryX=0;entryY=0.5;entryDx=0;entryDy=0;" edge="1" parent="1" source="B8D3fQR5BTclV4-2yra1-18" target="B8D3fQR5BTclV4-2yra1-35">
          <mxGeometry relative="1" as="geometry">
            <mxPoint x="530" y="160" as="targetPoint" />
          </mxGeometry>
        </mxCell>
        <mxCell id="B8D3fQR5BTclV4-2yra1-14" value="odrl:constraint" style="edgeLabel;html=1;align=center;verticalAlign=middle;resizable=0;points=[];" vertex="1" connectable="0" parent="B8D3fQR5BTclV4-2yra1-13">
          <mxGeometry x="-0.1502" relative="1" as="geometry">
            <mxPoint x="5" y="-14" as="offset" />
          </mxGeometry>
        </mxCell>
        <mxCell id="B8D3fQR5BTclV4-2yra1-15" style="rounded=0;orthogonalLoop=1;jettySize=auto;html=1;exitX=1;exitY=1;exitDx=0;exitDy=0;entryX=0;entryY=0;entryDx=0;entryDy=0;" edge="1" parent="1" source="B8D3fQR5BTclV4-2yra1-18" target="B8D3fQR5BTclV4-2yra1-40">
          <mxGeometry relative="1" as="geometry" />
        </mxCell>
        <mxCell id="B8D3fQR5BTclV4-2yra1-16" style="rounded=0;orthogonalLoop=1;jettySize=auto;html=1;entryX=1;entryY=0;entryDx=0;entryDy=0;exitX=0;exitY=1;exitDx=0;exitDy=0;" edge="1" parent="1" source="B8D3fQR5BTclV4-2yra1-18" target="B8D3fQR5BTclV4-2yra1-42">
          <mxGeometry relative="1" as="geometry" />
        </mxCell>
        <mxCell id="B8D3fQR5BTclV4-2yra1-17" value="odrl:action" style="edgeLabel;html=1;align=center;verticalAlign=middle;resizable=0;points=[];" vertex="1" connectable="0" parent="B8D3fQR5BTclV4-2yra1-16">
          <mxGeometry x="0.262" relative="1" as="geometry">
            <mxPoint y="-4" as="offset" />
          </mxGeometry>
        </mxCell>
        <mxCell id="B8D3fQR5BTclV4-2yra1-18" value="&lt;font style=&quot;font-size: 13px;&quot;&gt;odrl:Rule&lt;/font&gt;" style="rounded=1;whiteSpace=wrap;html=1;" vertex="1" parent="1">
          <mxGeometry x="315" y="340" width="125" height="50" as="geometry" />
        </mxCell>
        <mxCell id="B8D3fQR5BTclV4-2yra1-19" style="rounded=0;orthogonalLoop=1;jettySize=auto;html=1;entryX=0;entryY=0.5;entryDx=0;entryDy=0;endArrow=block;endFill=0;endSize=8;exitX=1;exitY=0.5;exitDx=0;exitDy=0;" edge="1" parent="1" source="B8D3fQR5BTclV4-2yra1-25" target="B8D3fQR5BTclV4-2yra1-18">
          <mxGeometry relative="1" as="geometry">
            <mxPoint x="230" y="130" as="sourcePoint" />
            <Array as="points">
              <mxPoint x="250" y="125" />
              <mxPoint x="250" y="365" />
            </Array>
          </mxGeometry>
        </mxCell>
        <mxCell id="B8D3fQR5BTclV4-2yra1-20" style="edgeStyle=orthogonalEdgeStyle;rounded=0;orthogonalLoop=1;jettySize=auto;html=1;exitX=0.25;exitY=0;exitDx=0;exitDy=0;entryX=0.25;entryY=1;entryDx=0;entryDy=0;" edge="1" parent="1" source="B8D3fQR5BTclV4-2yra1-22" target="B8D3fQR5BTclV4-2yra1-28">
          <mxGeometry relative="1" as="geometry" />
        </mxCell>
        <mxCell id="B8D3fQR5BTclV4-2yra1-21" value="&lt;b&gt;tosl:trigger&lt;/b&gt;" style="edgeLabel;html=1;align=center;verticalAlign=middle;resizable=0;points=[];" vertex="1" connectable="0" parent="B8D3fQR5BTclV4-2yra1-20">
          <mxGeometry x="-0.1333" relative="1" as="geometry">
            <mxPoint y="1" as="offset" />
          </mxGeometry>
        </mxCell>
        <mxCell id="B8D3fQR5BTclV4-2yra1-22" value="&lt;font style=&quot;font-size: 13px;&quot;&gt;odrl:Permission&lt;/font&gt;" style="rounded=1;whiteSpace=wrap;html=1;" vertex="1" parent="1">
          <mxGeometry x="100" y="271" width="125" height="50" as="geometry" />
        </mxCell>
        <mxCell id="B8D3fQR5BTclV4-2yra1-23" style="edgeStyle=orthogonalEdgeStyle;rounded=0;orthogonalLoop=1;jettySize=auto;html=1;exitX=0.75;exitY=1;exitDx=0;exitDy=0;entryX=0.75;entryY=0;entryDx=0;entryDy=0;" edge="1" parent="1" source="B8D3fQR5BTclV4-2yra1-25" target="B8D3fQR5BTclV4-2yra1-28">
          <mxGeometry relative="1" as="geometry" />
        </mxCell>
        <mxCell id="B8D3fQR5BTclV4-2yra1-24" value="odrl:remedy" style="edgeLabel;html=1;align=center;verticalAlign=middle;resizable=0;points=[];" vertex="1" connectable="0" parent="B8D3fQR5BTclV4-2yra1-23">
          <mxGeometry x="-0.0583" y="1" relative="1" as="geometry">
            <mxPoint x="-2" y="-3" as="offset" />
          </mxGeometry>
        </mxCell>
        <mxCell id="B8D3fQR5BTclV4-2yra1-25" value="&lt;font style=&quot;font-size: 13px;&quot;&gt;odrl:Prohibition&lt;/font&gt;" style="rounded=1;whiteSpace=wrap;html=1;" vertex="1" parent="1">
          <mxGeometry x="100" y="100" width="125" height="50" as="geometry" />
        </mxCell>
        <mxCell id="B8D3fQR5BTclV4-2yra1-26" style="edgeStyle=orthogonalEdgeStyle;rounded=0;orthogonalLoop=1;jettySize=auto;html=1;entryX=0.75;entryY=1;entryDx=0;entryDy=0;exitX=0.75;exitY=0;exitDx=0;exitDy=0;" edge="1" parent="1" source="B8D3fQR5BTclV4-2yra1-22" target="B8D3fQR5BTclV4-2yra1-28">
          <mxGeometry relative="1" as="geometry">
            <mxPoint x="60" y="205" as="sourcePoint" />
            <mxPoint x="60" y="285" as="targetPoint" />
          </mxGeometry>
        </mxCell>
        <mxCell id="B8D3fQR5BTclV4-2yra1-27" value="odrl:duty" style="edgeLabel;html=1;align=center;verticalAlign=middle;resizable=0;points=[];" vertex="1" connectable="0" parent="B8D3fQR5BTclV4-2yra1-26">
          <mxGeometry x="-0.1178" relative="1" as="geometry">
            <mxPoint x="-1" y="2" as="offset" />
          </mxGeometry>
        </mxCell>
        <mxCell id="B8D3fQR5BTclV4-2yra1-28" value="&lt;font style=&quot;font-size: 13px;&quot;&gt;odrl:Duty&lt;/font&gt;" style="rounded=1;whiteSpace=wrap;html=1;" vertex="1" parent="1">
          <mxGeometry x="100" y="183" width="125" height="50" as="geometry" />
        </mxCell>
        <mxCell id="B8D3fQR5BTclV4-2yra1-29" style="rounded=0;orthogonalLoop=1;jettySize=auto;html=1;entryX=0;entryY=1;entryDx=0;entryDy=0;" edge="1" parent="1" target="B8D3fQR5BTclV4-2yra1-37">
          <mxGeometry relative="1" as="geometry">
            <mxPoint x="660" y="290" as="sourcePoint" />
          </mxGeometry>
        </mxCell>
        <mxCell id="B8D3fQR5BTclV4-2yra1-30" value="odrl:rightOperand" style="edgeLabel;html=1;align=center;verticalAlign=middle;resizable=0;points=[];" vertex="1" connectable="0" parent="B8D3fQR5BTclV4-2yra1-29">
          <mxGeometry x="-0.0082" y="2" relative="1" as="geometry">
            <mxPoint x="9" y="-8" as="offset" />
          </mxGeometry>
        </mxCell>
        <mxCell id="B8D3fQR5BTclV4-2yra1-31" style="rounded=0;orthogonalLoop=1;jettySize=auto;html=1;entryX=0;entryY=0;entryDx=0;entryDy=0;" edge="1" parent="1" target="B8D3fQR5BTclV4-2yra1-36">
          <mxGeometry relative="1" as="geometry">
            <mxPoint x="660" y="300" as="sourcePoint" />
          </mxGeometry>
        </mxCell>
        <mxCell id="B8D3fQR5BTclV4-2yra1-32" value="odrl:leftOperand" style="edgeLabel;html=1;align=center;verticalAlign=middle;resizable=0;points=[];" vertex="1" connectable="0" parent="B8D3fQR5BTclV4-2yra1-31">
          <mxGeometry x="0.0082" relative="1" as="geometry">
            <mxPoint x="4" y="8" as="offset" />
          </mxGeometry>
        </mxCell>
        <mxCell id="B8D3fQR5BTclV4-2yra1-33" style="rounded=0;orthogonalLoop=1;jettySize=auto;html=1;entryX=0;entryY=0.5;entryDx=0;entryDy=0;" edge="1" parent="1" target="B8D3fQR5BTclV4-2yra1-38">
          <mxGeometry relative="1" as="geometry">
            <mxPoint x="660" y="295" as="sourcePoint" />
          </mxGeometry>
        </mxCell>
        <mxCell id="B8D3fQR5BTclV4-2yra1-34" value="odrl:operator" style="edgeLabel;html=1;align=center;verticalAlign=middle;resizable=0;points=[];" vertex="1" connectable="0" parent="B8D3fQR5BTclV4-2yra1-33">
          <mxGeometry x="-0.0762" y="1" relative="1" as="geometry">
            <mxPoint x="-1" as="offset" />
          </mxGeometry>
        </mxCell>
        <mxCell id="B8D3fQR5BTclV4-2yra1-137" value="" style="edgeStyle=orthogonalEdgeStyle;rounded=0;orthogonalLoop=1;jettySize=auto;html=1;endArrow=none;startFill=0;" edge="1" parent="1" source="B8D3fQR5BTclV4-2yra1-35">
          <mxGeometry relative="1" as="geometry">
            <mxPoint x="660" y="290" as="targetPoint" />
            <Array as="points">
              <mxPoint x="660" y="365" />
            </Array>
          </mxGeometry>
        </mxCell>
        <mxCell id="B8D3fQR5BTclV4-2yra1-35" value="&lt;font style=&quot;font-size: 13px;&quot;&gt;odrl:Constraint&lt;/font&gt;" style="rounded=1;whiteSpace=wrap;html=1;" vertex="1" parent="1">
          <mxGeometry x="530" y="340" width="125" height="50" as="geometry" />
        </mxCell>
        <mxCell id="B8D3fQR5BTclV4-2yra1-36" value="&lt;font style=&quot;font-size: 13px;&quot;&gt;odrl:LeftOperand&lt;/font&gt;" style="rounded=1;whiteSpace=wrap;html=1;" vertex="1" parent="1">
          <mxGeometry x="740.0000000000001" y="360" width="125" height="50" as="geometry" />
        </mxCell>
        <mxCell id="B8D3fQR5BTclV4-2yra1-37" value="&lt;font style=&quot;font-size: 13px;&quot;&gt;odrl:RightOperand&lt;/font&gt;" style="rounded=1;whiteSpace=wrap;html=1;" vertex="1" parent="1">
          <mxGeometry x="740.0000000000001" y="178" width="125" height="50" as="geometry" />
        </mxCell>
        <mxCell id="B8D3fQR5BTclV4-2yra1-38" value="&lt;font style=&quot;font-size: 13px;&quot;&gt;odrl:Operator&lt;/font&gt;" style="rounded=1;whiteSpace=wrap;html=1;" vertex="1" parent="1">
          <mxGeometry x="740.0000000000001" y="270" width="125" height="50" as="geometry" />
        </mxCell>
        <mxCell id="B8D3fQR5BTclV4-2yra1-39" value="&lt;font style=&quot;font-size: 13px;&quot;&gt;odrl:Asset&lt;/font&gt;" style="rounded=1;whiteSpace=wrap;html=1;" vertex="1" parent="1">
          <mxGeometry x="315" y="450" width="125" height="50" as="geometry" />
        </mxCell>
        <mxCell id="B8D3fQR5BTclV4-2yra1-40" value="&lt;font style=&quot;font-size: 13px;&quot;&gt;odrl:Party&lt;/font&gt;" style="rounded=1;whiteSpace=wrap;html=1;" vertex="1" parent="1">
          <mxGeometry x="530" y="450" width="125" height="50" as="geometry" />
        </mxCell>
        <mxCell id="B8D3fQR5BTclV4-2yra1-41" value="" style="edgeStyle=orthogonalEdgeStyle;rounded=0;orthogonalLoop=1;jettySize=auto;html=1;" edge="1" parent="1" source="B8D3fQR5BTclV4-2yra1-42" target="B8D3fQR5BTclV4-2yra1-117">
          <mxGeometry relative="1" as="geometry" />
        </mxCell>
        <mxCell id="B8D3fQR5BTclV4-2yra1-42" value="&lt;font style=&quot;font-size: 13px;&quot;&gt;odrl:Action&lt;/font&gt;" style="rounded=1;whiteSpace=wrap;html=1;" vertex="1" parent="1">
          <mxGeometry x="100" y="450" width="125" height="50" as="geometry" />
        </mxCell>
        <mxCell id="B8D3fQR5BTclV4-2yra1-43" value="&lt;span style=&quot;font-size: 13px;&quot;&gt;tosl:Jurisdiction&lt;/span&gt;" style="rounded=1;whiteSpace=wrap;html=1;fillColor=#dae8fc;strokeColor=#6c8ebf;" vertex="1" parent="1">
          <mxGeometry x="525" y="-30" width="135" height="50" as="geometry" />
        </mxCell>
        <mxCell id="B8D3fQR5BTclV4-2yra1-44" value="&lt;span style=&quot;font-size: 13px;&quot;&gt;tosl:Law&lt;/span&gt;" style="rounded=1;whiteSpace=wrap;html=1;fillColor=#dae8fc;strokeColor=#6c8ebf;" vertex="1" parent="1">
          <mxGeometry x="740" y="-30" width="135" height="50" as="geometry" />
        </mxCell>
        <mxCell id="B8D3fQR5BTclV4-2yra1-45" style="rounded=0;orthogonalLoop=1;jettySize=auto;html=1;exitX=0.5;exitY=1;exitDx=0;exitDy=0;entryX=0.5;entryY=0;entryDx=0;entryDy=0;" edge="1" parent="1">
          <mxGeometry relative="1" as="geometry">
            <mxPoint x="377.5" y="450" as="targetPoint" />
            <mxPoint x="377.5" y="390" as="sourcePoint" />
          </mxGeometry>
        </mxCell>
        <mxCell id="B8D3fQR5BTclV4-2yra1-46" style="edgeStyle=orthogonalEdgeStyle;rounded=0;orthogonalLoop=1;jettySize=auto;html=1;exitX=0.5;exitY=1;exitDx=0;exitDy=0;" edge="1" parent="1" source="B8D3fQR5BTclV4-2yra1-42" target="B8D3fQR5BTclV4-2yra1-42">
          <mxGeometry relative="1" as="geometry" />
        </mxCell>
        <mxCell id="B8D3fQR5BTclV4-2yra1-53" value="" style="edgeStyle=orthogonalEdgeStyle;rounded=0;orthogonalLoop=1;jettySize=auto;html=1;" edge="1" parent="1" source="B8D3fQR5BTclV4-2yra1-54" target="B8D3fQR5BTclV4-2yra1-43">
          <mxGeometry relative="1" as="geometry" />
        </mxCell>
        <mxCell id="B8D3fQR5BTclV4-2yra1-54" value="&lt;font style=&quot;font-size: 11px;&quot;&gt;tosl:DisputeResolution&lt;/font&gt;" style="rounded=1;whiteSpace=wrap;html=1;fillColor=#dae8fc;strokeColor=#6c8ebf;" vertex="1" parent="1">
          <mxGeometry x="530" y="100" width="125" height="50" as="geometry" />
        </mxCell>
        <mxCell id="B8D3fQR5BTclV4-2yra1-55" style="edgeStyle=orthogonalEdgeStyle;rounded=0;orthogonalLoop=1;jettySize=auto;html=1;endArrow=none;endFill=0;exitX=0.5;exitY=1;exitDx=0;exitDy=0;" edge="1" parent="1" source="B8D3fQR5BTclV4-2yra1-56">
          <mxGeometry relative="1" as="geometry">
            <mxPoint x="380" y="40" as="targetPoint" />
            <Array as="points">
              <mxPoint x="163" y="40" />
            </Array>
            <mxPoint x="163" y="30" as="sourcePoint" />
          </mxGeometry>
        </mxCell>
        <mxCell id="B8D3fQR5BTclV4-2yra1-56" value="&lt;font style=&quot;font-size: 13px;&quot;&gt;tosl:Arbitration&lt;/font&gt;" style="rounded=1;whiteSpace=wrap;html=1;fillColor=#dae8fc;strokeColor=#6c8ebf;" vertex="1" parent="1">
          <mxGeometry x="91.25" y="-30" width="142.5" height="50" as="geometry" />
        </mxCell>
        <mxCell id="B8D3fQR5BTclV4-2yra1-57" style="rounded=0;orthogonalLoop=1;jettySize=auto;html=1;entryX=0;entryY=0;entryDx=0;entryDy=0;endSize=8;endArrow=block;endFill=0;" edge="1" parent="1" target="B8D3fQR5BTclV4-2yra1-54">
          <mxGeometry relative="1" as="geometry">
            <Array as="points">
              <mxPoint x="380" y="40" />
            </Array>
            <mxPoint x="380" y="20" as="sourcePoint" />
          </mxGeometry>
        </mxCell>
        <mxCell id="B8D3fQR5BTclV4-2yra1-58" style="edgeStyle=orthogonalEdgeStyle;rounded=0;orthogonalLoop=1;jettySize=auto;html=1;entryX=1;entryY=0.5;entryDx=0;entryDy=0;" edge="1" parent="1" source="B8D3fQR5BTclV4-2yra1-60" target="B8D3fQR5BTclV4-2yra1-56">
          <mxGeometry relative="1" as="geometry">
            <Array as="points" />
          </mxGeometry>
        </mxCell>
        <mxCell id="B8D3fQR5BTclV4-2yra1-59" value="&lt;b&gt;tosl:requires&lt;/b&gt;" style="edgeLabel;html=1;align=center;verticalAlign=middle;resizable=0;points=[];" vertex="1" connectable="0" parent="B8D3fQR5BTclV4-2yra1-58">
          <mxGeometry x="0.0812" y="4" relative="1" as="geometry">
            <mxPoint x="3" y="-17" as="offset" />
          </mxGeometry>
        </mxCell>
        <mxCell id="B8D3fQR5BTclV4-2yra1-60" value="&lt;font style=&quot;font-size: 13px;&quot;&gt;tosl:Litigation&lt;/font&gt;" style="rounded=1;whiteSpace=wrap;html=1;fillColor=#dae8fc;strokeColor=#6c8ebf;" vertex="1" parent="1">
          <mxGeometry x="310" y="-30" width="138.75" height="50" as="geometry" />
        </mxCell>
        <mxCell id="B8D3fQR5BTclV4-2yra1-61" style="edgeStyle=orthogonalEdgeStyle;rounded=0;orthogonalLoop=1;jettySize=auto;html=1;exitX=0.5;exitY=1;exitDx=0;exitDy=0;" edge="1" parent="1" source="B8D3fQR5BTclV4-2yra1-35" target="B8D3fQR5BTclV4-2yra1-35">
          <mxGeometry relative="1" as="geometry" />
        </mxCell>
        <mxCell id="B8D3fQR5BTclV4-2yra1-62" style="edgeStyle=orthogonalEdgeStyle;rounded=0;orthogonalLoop=1;jettySize=auto;html=1;exitX=0.25;exitY=0;exitDx=0;exitDy=0;entryX=0.5;entryY=1;entryDx=0;entryDy=0;endArrow=oval;endFill=0;endSize=8;" edge="1" parent="1" source="B8D3fQR5BTclV4-2yra1-63" target="B8D3fQR5BTclV4-2yra1-44">
          <mxGeometry relative="1" as="geometry">
            <Array as="points">
              <mxPoint x="808" y="60" />
            </Array>
          </mxGeometry>
        </mxCell>
        <mxCell id="B8D3fQR5BTclV4-2yra1-63" value="&lt;span style=&quot;font-size: 13px;&quot;&gt;tosl:consumerPlaceLaw&lt;/span&gt;" style="rounded=1;whiteSpace=wrap;html=1;fillColor=#dae8fc;strokeColor=#6c8ebf;" vertex="1" parent="1">
          <mxGeometry x="770" y="40" width="160" height="40" as="geometry" />
        </mxCell>
        <mxCell id="B8D3fQR5BTclV4-2yra1-64" value="&lt;span style=&quot;font-size: 13px;&quot;&gt;tosl:irelandLaw&lt;/span&gt;" style="rounded=1;whiteSpace=wrap;html=1;fillColor=#dae8fc;strokeColor=#6c8ebf;" vertex="1" parent="1">
          <mxGeometry x="780" y="70" width="160" height="40" as="geometry" />
        </mxCell>
        <mxCell id="B8D3fQR5BTclV4-2yra1-65" value="&lt;span style=&quot;font-size: 13px;&quot;&gt;...&lt;/span&gt;" style="rounded=1;whiteSpace=wrap;html=1;fillColor=#dae8fc;strokeColor=#6c8ebf;" vertex="1" parent="1">
          <mxGeometry x="790" y="100" width="160" height="40" as="geometry" />
        </mxCell>
        <mxCell id="B8D3fQR5BTclV4-2yra1-67" style="edgeStyle=orthogonalEdgeStyle;rounded=0;orthogonalLoop=1;jettySize=auto;html=1;exitX=0.5;exitY=1;exitDx=0;exitDy=0;" edge="1" parent="1">
          <mxGeometry relative="1" as="geometry">
            <mxPoint x="581.75" y="517.4" as="sourcePoint" />
            <mxPoint x="581.75" y="517.4" as="targetPoint" />
          </mxGeometry>
        </mxCell>
        <mxCell id="B8D3fQR5BTclV4-2yra1-70" style="edgeStyle=orthogonalEdgeStyle;rounded=0;orthogonalLoop=1;jettySize=auto;html=1;exitX=0.321;exitY=-0.007;exitDx=0;exitDy=0;exitPerimeter=0;" edge="1" parent="1" source="B8D3fQR5BTclV4-2yra1-126">
          <mxGeometry relative="1" as="geometry">
            <Array as="points" />
            <mxPoint x="570.0243902439026" y="549.9999999999998" as="sourcePoint" />
            <mxPoint x="570" y="500" as="targetPoint" />
          </mxGeometry>
        </mxCell>
        <mxCell id="B8D3fQR5BTclV4-2yra1-71" value="&lt;b&gt;tosl:liableParty&lt;/b&gt;" style="edgeLabel;html=1;align=center;verticalAlign=middle;resizable=0;points=[];" vertex="1" connectable="0" parent="B8D3fQR5BTclV4-2yra1-70">
          <mxGeometry x="-0.0769" relative="1" as="geometry">
            <mxPoint x="1" y="-11" as="offset" />
          </mxGeometry>
        </mxCell>
        <mxCell id="B8D3fQR5BTclV4-2yra1-72" value="&lt;span style=&quot;font-size: 13px;&quot;&gt;tosl:directDamage&lt;/span&gt;" style="rounded=1;whiteSpace=wrap;html=1;fillColor=#dae8fc;strokeColor=#6c8ebf;" vertex="1" parent="1">
          <mxGeometry x="530" y="650" width="150" height="40" as="geometry" />
        </mxCell>
        <mxCell id="B8D3fQR5BTclV4-2yra1-73" value="&lt;span style=&quot;font-size: 13px;&quot;&gt;tosl:anyLoss&lt;/span&gt;" style="rounded=1;whiteSpace=wrap;html=1;fillColor=#dae8fc;strokeColor=#6c8ebf;" vertex="1" parent="1">
          <mxGeometry x="540" y="680" width="150" height="40" as="geometry" />
        </mxCell>
        <mxCell id="B8D3fQR5BTclV4-2yra1-74" value="&lt;span style=&quot;font-size: 13px;&quot;&gt;tosl:anyIndirectDamage&lt;/span&gt;" style="rounded=1;whiteSpace=wrap;html=1;fillColor=#dae8fc;strokeColor=#6c8ebf;" vertex="1" parent="1">
          <mxGeometry x="550" y="710" width="150" height="40" as="geometry" />
        </mxCell>
        <mxCell id="B8D3fQR5BTclV4-2yra1-75" value="&lt;span style=&quot;font-size: 13px;&quot;&gt;tosl:claim&lt;/span&gt;" style="rounded=1;whiteSpace=wrap;html=1;fillColor=#dae8fc;strokeColor=#6c8ebf;" vertex="1" parent="1">
          <mxGeometry x="117.5" y="621" width="160" height="40" as="geometry" />
        </mxCell>
        <mxCell id="B8D3fQR5BTclV4-2yra1-77" style="edgeStyle=orthogonalEdgeStyle;rounded=0;orthogonalLoop=1;jettySize=auto;html=1;entryX=0.5;entryY=1;entryDx=0;entryDy=0;endArrow=block;endFill=0;endSize=8;exitX=0.5;exitY=0;exitDx=0;exitDy=0;" edge="1" parent="1" source="B8D3fQR5BTclV4-2yra1-78" target="B8D3fQR5BTclV4-2yra1-39">
          <mxGeometry relative="1" as="geometry">
            <mxPoint x="373" y="505" as="targetPoint" />
          </mxGeometry>
        </mxCell>
        <mxCell id="B8D3fQR5BTclV4-2yra1-78" value="&lt;span style=&quot;font-size: 13px;&quot;&gt;tosl:UserContent&lt;/span&gt;" style="rounded=1;whiteSpace=wrap;html=1;fillColor=#dae8fc;strokeColor=#6c8ebf;" vertex="1" parent="1">
          <mxGeometry x="315" y="561" width="125" height="49" as="geometry" />
        </mxCell>
        <mxCell id="B8D3fQR5BTclV4-2yra1-79" value="&lt;span style=&quot;font-size: 13px;&quot;&gt;tosl:Service&lt;/span&gt;" style="rounded=1;whiteSpace=wrap;html=1;fillColor=#dae8fc;strokeColor=#6c8ebf;" vertex="1" parent="1">
          <mxGeometry x="323.75" y="601" width="125" height="49" as="geometry" />
        </mxCell>
        <mxCell id="B8D3fQR5BTclV4-2yra1-80" value="&lt;span style=&quot;font-size: 13px;&quot;&gt;...&lt;/span&gt;" style="rounded=1;whiteSpace=wrap;html=1;fillColor=#dae8fc;strokeColor=#6c8ebf;" vertex="1" parent="1">
          <mxGeometry x="335" y="641" width="125" height="49" as="geometry" />
        </mxCell>
        <mxCell id="B8D3fQR5BTclV4-2yra1-81" value="" style="rounded=0;whiteSpace=wrap;html=1;fillColor=none;" vertex="1" parent="1">
          <mxGeometry x="853.66" y="701" width="210" height="100" as="geometry" />
        </mxCell>
        <mxCell id="B8D3fQR5BTclV4-2yra1-82" value="tosl" style="rounded=1;whiteSpace=wrap;html=1;fillColor=#dae8fc;strokeColor=#6c8ebf;" vertex="1" parent="1">
          <mxGeometry x="873.66" y="720" width="70" height="20" as="geometry" />
        </mxCell>
        <mxCell id="B8D3fQR5BTclV4-2yra1-83" value="odrl" style="rounded=1;whiteSpace=wrap;html=1;" vertex="1" parent="1">
          <mxGeometry x="873.66" y="760" width="70" height="20" as="geometry" />
        </mxCell>
        <mxCell id="B8D3fQR5BTclV4-2yra1-84" style="edgeStyle=orthogonalEdgeStyle;rounded=0;orthogonalLoop=1;jettySize=auto;html=1;endArrow=oval;endFill=0;endSize=8;" edge="1" parent="1">
          <mxGeometry relative="1" as="geometry">
            <mxPoint x="1038.66" y="725.38" as="targetPoint" />
            <mxPoint x="1000" y="726" as="sourcePoint" />
          </mxGeometry>
        </mxCell>
        <mxCell id="B8D3fQR5BTclV4-2yra1-85" value="instance of" style="edgeLabel;html=1;align=center;verticalAlign=middle;resizable=0;points=[];" vertex="1" connectable="0" parent="B8D3fQR5BTclV4-2yra1-84">
          <mxGeometry x="-0.21" y="1" relative="1" as="geometry">
            <mxPoint x="-20" y="-10" as="offset" />
          </mxGeometry>
        </mxCell>
        <mxCell id="B8D3fQR5BTclV4-2yra1-86" style="edgeStyle=orthogonalEdgeStyle;rounded=0;orthogonalLoop=1;jettySize=auto;html=1;endArrow=block;endFill=0;endSize=8;" edge="1" parent="1">
          <mxGeometry relative="1" as="geometry">
            <mxPoint x="1043.66" y="757" as="targetPoint" />
            <mxPoint x="1000" y="757.25" as="sourcePoint" />
            <Array as="points">
              <mxPoint x="1020" y="758.25" />
              <mxPoint x="1020" y="757.25" />
            </Array>
          </mxGeometry>
        </mxCell>
        <mxCell id="B8D3fQR5BTclV4-2yra1-87" value="subClassOf" style="edgeLabel;html=1;align=center;verticalAlign=middle;resizable=0;points=[];" vertex="1" connectable="0" parent="B8D3fQR5BTclV4-2yra1-86">
          <mxGeometry x="-0.36" relative="1" as="geometry">
            <mxPoint x="-16" y="-12" as="offset" />
          </mxGeometry>
        </mxCell>
        <mxCell id="B8D3fQR5BTclV4-2yra1-88" style="edgeStyle=orthogonalEdgeStyle;rounded=0;orthogonalLoop=1;jettySize=auto;html=1;endArrow=block;endFill=1;endSize=8;" edge="1" parent="1">
          <mxGeometry relative="1" as="geometry">
            <mxPoint x="1043.66" y="786" as="targetPoint" />
            <mxPoint x="1000" y="786" as="sourcePoint" />
          </mxGeometry>
        </mxCell>
        <mxCell id="B8D3fQR5BTclV4-2yra1-89" value="relationship" style="edgeLabel;html=1;align=center;verticalAlign=middle;resizable=0;points=[];" vertex="1" connectable="0" parent="B8D3fQR5BTclV4-2yra1-88">
          <mxGeometry x="-0.86" y="3" relative="1" as="geometry">
            <mxPoint x="-5" y="-7" as="offset" />
          </mxGeometry>
        </mxCell>
        <mxCell id="B8D3fQR5BTclV4-2yra1-91" value="&lt;span style=&quot;font-size: 13px;&quot;&gt;tosl:implicitConsent&lt;/span&gt;" style="rounded=1;whiteSpace=wrap;html=1;fillColor=#dae8fc;strokeColor=#6c8ebf;" vertex="1" parent="1">
          <mxGeometry x="889.66" y="178" width="134" height="42" as="geometry" />
        </mxCell>
        <mxCell id="B8D3fQR5BTclV4-2yra1-92" value="&lt;span style=&quot;font-size: 13px;&quot;&gt;tosl:&lt;/span&gt;&lt;span style=&quot;font-size: 13px;&quot;&gt;degradation&lt;/span&gt;" style="rounded=1;whiteSpace=wrap;html=1;fillColor=#dae8fc;strokeColor=#6c8ebf;" vertex="1" parent="1">
          <mxGeometry x="902.16" y="208" width="131.5" height="42" as="geometry" />
        </mxCell>
        <mxCell id="B8D3fQR5BTclV4-2yra1-93" value="&lt;span style=&quot;font-size: 13px;&quot;&gt;...&lt;/span&gt;" style="rounded=1;whiteSpace=wrap;html=1;fillColor=#dae8fc;strokeColor=#6c8ebf;" vertex="1" parent="1">
          <mxGeometry x="912.1600000000001" y="238" width="131.5" height="40" as="geometry" />
        </mxCell>
        <mxCell id="B8D3fQR5BTclV4-2yra1-94" value="&lt;span style=&quot;font-size: 13px;&quot;&gt;tosl:assign&lt;/span&gt;" style="rounded=1;whiteSpace=wrap;html=1;fillColor=#dae8fc;strokeColor=#6c8ebf;" vertex="1" parent="1">
          <mxGeometry x="127.5" y="651" width="160" height="40" as="geometry" />
        </mxCell>
        <mxCell id="B8D3fQR5BTclV4-2yra1-95" value="&lt;span style=&quot;font-size: 13px;&quot;&gt;tosl:allowDownload&lt;/span&gt;" style="rounded=1;whiteSpace=wrap;html=1;fillColor=#dae8fc;strokeColor=#6c8ebf;" vertex="1" parent="1">
          <mxGeometry x="137.5" y="681" width="160" height="40" as="geometry" />
        </mxCell>
        <mxCell id="B8D3fQR5BTclV4-2yra1-96" value="odrl:assignee&lt;div&gt;odrl:assigner&lt;/div&gt;" style="edgeLabel;html=1;align=center;verticalAlign=middle;resizable=0;points=[];" vertex="1" connectable="0" parent="1">
          <mxGeometry x="483.7537820501069" y="425.00215384976195" as="geometry" />
        </mxCell>
        <mxCell id="B8D3fQR5BTclV4-2yra1-97" value="&lt;span style=&quot;font-size: 13px;&quot;&gt;tosl:terminate&lt;/span&gt;" style="rounded=1;whiteSpace=wrap;html=1;fillColor=#dae8fc;strokeColor=#6c8ebf;" vertex="1" parent="1">
          <mxGeometry x="147.5" y="711" width="160" height="40" as="geometry" />
        </mxCell>
        <mxCell id="B8D3fQR5BTclV4-2yra1-98" value="&lt;span style=&quot;font-size: 13px;&quot;&gt;tosl:publish&lt;/span&gt;" style="rounded=1;whiteSpace=wrap;html=1;fillColor=#dae8fc;strokeColor=#6c8ebf;" vertex="1" parent="1">
          <mxGeometry x="157.5" y="741" width="160" height="40" as="geometry" />
        </mxCell>
        <mxCell id="B8D3fQR5BTclV4-2yra1-99" value="&lt;span style=&quot;font-size: 13px;&quot;&gt;...&lt;/span&gt;" style="rounded=1;whiteSpace=wrap;html=1;fillColor=#dae8fc;strokeColor=#6c8ebf;" vertex="1" parent="1">
          <mxGeometry x="163.75" y="771" width="160" height="40" as="geometry" />
        </mxCell>
        <mxCell id="B8D3fQR5BTclV4-2yra1-100" value="&lt;b&gt;tosl:takesPlaceIn&lt;/b&gt;" style="edgeLabel;html=1;align=center;verticalAlign=middle;resizable=0;points=[];" vertex="1" connectable="0" parent="1">
          <mxGeometry x="592.5015407290122" y="52.99849459390449" as="geometry" />
        </mxCell>
        <mxCell id="B8D3fQR5BTclV4-2yra1-101" value="&lt;span style=&quot;font-size: 13px;&quot;&gt;tosl:discontinuity&lt;/span&gt;" style="rounded=1;whiteSpace=wrap;html=1;fillColor=#dae8fc;strokeColor=#6c8ebf;" vertex="1" parent="1">
          <mxGeometry x="560" y="740" width="150" height="40" as="geometry" />
        </mxCell>
        <mxCell id="B8D3fQR5BTclV4-2yra1-102" value="&lt;span style=&quot;font-size: 13px;&quot;&gt;...&lt;/span&gt;" style="rounded=1;whiteSpace=wrap;html=1;fillColor=#dae8fc;strokeColor=#6c8ebf;" vertex="1" parent="1">
          <mxGeometry x="570" y="770" width="150" height="40" as="geometry" />
        </mxCell>
        <mxCell id="B8D3fQR5BTclV4-2yra1-106" value="odrl:target" style="edgeLabel;html=1;align=center;verticalAlign=middle;resizable=0;points=[];" vertex="1" connectable="0" parent="1">
          <mxGeometry x="377.5037820501069" y="425.00215384976195" as="geometry" />
        </mxCell>
        <mxCell id="B8D3fQR5BTclV4-2yra1-107" style="rounded=0;orthogonalLoop=1;jettySize=auto;html=1;startArrow=classic;startFill=1;endArrow=none;endFill=1;exitX=0;exitY=0.75;exitDx=0;exitDy=0;" edge="1" parent="1" source="B8D3fQR5BTclV4-2yra1-110">
          <mxGeometry relative="1" as="geometry">
            <mxPoint x="409" y="340" as="targetPoint" />
            <mxPoint x="480" y="280" as="sourcePoint" />
          </mxGeometry>
        </mxCell>
        <mxCell id="B8D3fQR5BTclV4-2yra1-108" value="" style="rounded=0;orthogonalLoop=1;jettySize=auto;html=1;entryX=0.75;entryY=1;entryDx=0;entryDy=0;endArrow=none;endFill=1;startFill=1;startArrow=classic;exitX=0;exitY=0.25;exitDx=0;exitDy=0;" edge="1" parent="1" source="B8D3fQR5BTclV4-2yra1-110" target="B8D3fQR5BTclV4-2yra1-8">
          <mxGeometry relative="1" as="geometry">
            <mxPoint x="501" y="220" as="sourcePoint" />
          </mxGeometry>
        </mxCell>
        <mxCell id="B8D3fQR5BTclV4-2yra1-109" style="rounded=0;orthogonalLoop=1;jettySize=auto;html=1;exitX=1;exitY=1;exitDx=0;exitDy=0;endArrow=classic;endFill=1;strokeColor=default;" edge="1" parent="1">
          <mxGeometry relative="1" as="geometry">
            <mxPoint x="440" y="500" as="sourcePoint" />
            <mxPoint x="530" y="560" as="targetPoint" />
          </mxGeometry>
        </mxCell>
        <mxCell id="B8D3fQR5BTclV4-2yra1-136" style="rounded=0;orthogonalLoop=1;jettySize=auto;html=1;entryX=0.25;entryY=0;entryDx=0;entryDy=0;exitX=0.5;exitY=1;exitDx=0;exitDy=0;" edge="1" parent="1" source="B8D3fQR5BTclV4-2yra1-110" target="B8D3fQR5BTclV4-2yra1-35">
          <mxGeometry relative="1" as="geometry" />
        </mxCell>
        <mxCell id="B8D3fQR5BTclV4-2yra1-156" value="&lt;b&gt;tosl:limitation&lt;/b&gt;" style="edgeLabel;html=1;align=center;verticalAlign=middle;resizable=0;points=[];" vertex="1" connectable="0" parent="B8D3fQR5BTclV4-2yra1-136">
          <mxGeometry x="-0.0534" relative="1" as="geometry">
            <mxPoint x="-20" y="-18" as="offset" />
          </mxGeometry>
        </mxCell>
        <mxCell id="B8D3fQR5BTclV4-2yra1-110" value="&lt;span style=&quot;font-size: 13px;&quot;&gt;tosl:Liability&lt;/span&gt;" style="rounded=1;whiteSpace=wrap;html=1;fillColor=#dae8fc;strokeColor=#6c8ebf;" vertex="1" parent="1">
          <mxGeometry x="474.75" y="220" width="81.25" height="50" as="geometry" />
        </mxCell>
        <mxCell id="B8D3fQR5BTclV4-2yra1-111" value="&lt;b&gt;tosl:limitationOfLiability&lt;/b&gt;" style="edgeLabel;html=1;align=center;verticalAlign=middle;resizable=0;points=[];" vertex="1" connectable="0" parent="1">
          <mxGeometry x="448.92280870860856" y="175.00097349366257" as="geometry">
            <mxPoint x="4" y="-1" as="offset" />
          </mxGeometry>
        </mxCell>
        <mxCell id="B8D3fQR5BTclV4-2yra1-112" value="&lt;b&gt;tosl:liability&lt;/b&gt;" style="edgeLabel;html=1;align=center;verticalAlign=middle;resizable=0;points=[];" vertex="1" connectable="0" parent="1">
          <mxGeometry x="449.7547413085215" y="187.00452717537885" as="geometry" />
        </mxCell>
        <mxCell id="B8D3fQR5BTclV4-2yra1-113" value="&lt;b&gt;tosl:limitationOfLiability&lt;/b&gt;" style="edgeLabel;html=1;align=center;verticalAlign=middle;resizable=0;points=[];" vertex="1" connectable="0" parent="1">
          <mxGeometry x="450.7528087086086" y="316.0009734936625" as="geometry" />
        </mxCell>
        <mxCell id="B8D3fQR5BTclV4-2yra1-114" value="&lt;b&gt;tosl:liability&lt;/b&gt;" style="edgeLabel;html=1;align=center;verticalAlign=middle;resizable=0;points=[];" vertex="1" connectable="0" parent="1">
          <mxGeometry x="448.9247413085215" y="304.0045271753788" as="geometry" />
        </mxCell>
        <mxCell id="B8D3fQR5BTclV4-2yra1-115" value="&lt;b&gt;tosl:limitationOfLiability&lt;/b&gt;" style="edgeLabel;html=1;align=center;verticalAlign=middle;resizable=0;points=[];" vertex="1" connectable="0" parent="1">
          <mxGeometry x="450.7528087086086" y="521.0009734936625" as="geometry" />
        </mxCell>
        <mxCell id="B8D3fQR5BTclV4-2yra1-116" value="&lt;b&gt;tosl:liability&lt;/b&gt;" style="edgeLabel;html=1;align=center;verticalAlign=middle;resizable=0;points=[];" vertex="1" connectable="0" parent="1">
          <mxGeometry x="450.7547413085215" y="534.0045271753788" as="geometry" />
        </mxCell>
        <mxCell id="B8D3fQR5BTclV4-2yra1-117" value="&lt;font style=&quot;font-size: 13px;&quot;&gt;odrl:Constraint&lt;/font&gt;" style="rounded=1;whiteSpace=wrap;html=1;" vertex="1" parent="1">
          <mxGeometry x="100" y="340" width="125" height="50" as="geometry" />
        </mxCell>
        <mxCell id="B8D3fQR5BTclV4-2yra1-118" value="odrl:refinement" style="edgeLabel;html=1;align=center;verticalAlign=middle;resizable=0;points=[];" vertex="1" connectable="0" parent="1">
          <mxGeometry x="500.9966666666667" y="355" as="geometry">
            <mxPoint x="-343" y="67" as="offset" />
          </mxGeometry>
        </mxCell>
        <mxCell id="B8D3fQR5BTclV4-2yra1-119" value="" style="endArrow=none;html=1;rounded=0;entryX=1;entryY=0.5;entryDx=0;entryDy=0;" edge="1" parent="1" target="B8D3fQR5BTclV4-2yra1-22">
          <mxGeometry width="50" height="50" relative="1" as="geometry">
            <mxPoint x="250" y="296" as="sourcePoint" />
            <mxPoint x="260" y="281" as="targetPoint" />
          </mxGeometry>
        </mxCell>
        <mxCell id="B8D3fQR5BTclV4-2yra1-120" value="" style="endArrow=none;html=1;rounded=0;entryX=1;entryY=0.5;entryDx=0;entryDy=0;" edge="1" parent="1" target="B8D3fQR5BTclV4-2yra1-28">
          <mxGeometry width="50" height="50" relative="1" as="geometry">
            <mxPoint x="250" y="208" as="sourcePoint" />
            <mxPoint x="225" y="207.70999999999998" as="targetPoint" />
          </mxGeometry>
        </mxCell>
        <mxCell id="B8D3fQR5BTclV4-2yra1-121" style="edgeStyle=orthogonalEdgeStyle;rounded=0;orthogonalLoop=1;jettySize=auto;html=1;exitX=0;exitY=0.75;exitDx=0;exitDy=0;entryX=0.25;entryY=0;entryDx=0;entryDy=0;" edge="1" parent="1" source="B8D3fQR5BTclV4-2yra1-28" target="B8D3fQR5BTclV4-2yra1-28">
          <mxGeometry relative="1" as="geometry">
            <Array as="points">
              <mxPoint x="80" y="221" />
              <mxPoint x="80" y="160" />
              <mxPoint x="131" y="160" />
            </Array>
          </mxGeometry>
        </mxCell>
        <mxCell id="B8D3fQR5BTclV4-2yra1-122" value="odrl:consequence" style="edgeLabel;html=1;align=center;verticalAlign=middle;resizable=0;points=[];" vertex="1" connectable="0" parent="B8D3fQR5BTclV4-2yra1-121">
          <mxGeometry x="-0.1307" relative="1" as="geometry">
            <mxPoint x="-6" y="-1" as="offset" />
          </mxGeometry>
        </mxCell>
        <mxCell id="B8D3fQR5BTclV4-2yra1-123" value="&lt;span style=&quot;font-size: 13px;&quot;&gt;...&lt;/span&gt;" style="rounded=1;whiteSpace=wrap;html=1;fillColor=#dae8fc;strokeColor=#6c8ebf;" vertex="1" parent="1">
          <mxGeometry x="912.16" y="238" width="131.5" height="42" as="geometry" />
        </mxCell>
        <mxCell id="B8D3fQR5BTclV4-2yra1-124" style="edgeStyle=orthogonalEdgeStyle;rounded=0;orthogonalLoop=1;jettySize=auto;html=1;exitX=0.75;exitY=0;exitDx=0;exitDy=0;entryX=0.75;entryY=1;entryDx=0;entryDy=0;" edge="1" parent="1" source="B8D3fQR5BTclV4-2yra1-126" target="B8D3fQR5BTclV4-2yra1-40">
          <mxGeometry relative="1" as="geometry" />
        </mxCell>
        <mxCell id="B8D3fQR5BTclV4-2yra1-125" value="&lt;b&gt;tosl:targetParty&lt;/b&gt;" style="edgeLabel;html=1;align=center;verticalAlign=middle;resizable=0;points=[];" vertex="1" connectable="0" parent="B8D3fQR5BTclV4-2yra1-124">
          <mxGeometry x="-0.2995" y="-1" relative="1" as="geometry">
            <mxPoint y="4" as="offset" />
          </mxGeometry>
        </mxCell>
        <mxCell id="B8D3fQR5BTclV4-2yra1-126" value="&lt;font style=&quot;font-size: 13px;&quot;&gt;tosl:Liability&lt;/font&gt;" style="rounded=1;whiteSpace=wrap;html=1;fillColor=#dae8fc;strokeColor=#6c8ebf;" vertex="1" parent="1">
          <mxGeometry x="530" y="561" width="125" height="50" as="geometry" />
        </mxCell>
        <mxCell id="B8D3fQR5BTclV4-2yra1-127" style="edgeStyle=orthogonalEdgeStyle;rounded=0;orthogonalLoop=1;jettySize=auto;html=1;exitX=0.5;exitY=1;exitDx=0;exitDy=0;endArrow=none;startFill=0;startArrow=oval;endSize=8;startSize=8;" edge="1" parent="1" source="B8D3fQR5BTclV4-2yra1-42">
          <mxGeometry relative="1" as="geometry">
            <mxPoint x="163" y="560" as="targetPoint" />
            <Array as="points">
              <mxPoint x="163" y="530" />
              <mxPoint x="163" y="530" />
            </Array>
          </mxGeometry>
        </mxCell>
        <mxCell id="B8D3fQR5BTclV4-2yra1-129" value="" style="edgeStyle=orthogonalEdgeStyle;rounded=0;orthogonalLoop=1;jettySize=auto;html=1;entryX=0.418;entryY=-0.022;entryDx=0;entryDy=0;entryPerimeter=0;endArrow=none;startFill=0;startArrow=oval;exitX=0.5;exitY=1;exitDx=0;exitDy=0;startSize=8;" edge="1" parent="1" source="B8D3fQR5BTclV4-2yra1-126" target="B8D3fQR5BTclV4-2yra1-72">
          <mxGeometry relative="1" as="geometry">
            <Array as="points">
              <mxPoint x="593" y="632" />
            </Array>
            <mxPoint x="592.5333333333333" y="622" as="sourcePoint" />
          </mxGeometry>
        </mxCell>
        <mxCell id="B8D3fQR5BTclV4-2yra1-139" value="&lt;span style=&quot;font-size: 13px;&quot;&gt;tosl:justification&lt;/span&gt;" style="rounded=1;whiteSpace=wrap;html=1;fillColor=#dae8fc;strokeColor=#6c8ebf;" vertex="1" parent="1">
          <mxGeometry x="889.6600000000001" y="360" width="134" height="40" as="geometry" />
        </mxCell>
        <mxCell id="B8D3fQR5BTclV4-2yra1-140" value="&lt;span style=&quot;font-size: 13px;&quot;&gt;tosl:consentType&lt;/span&gt;" style="rounded=1;whiteSpace=wrap;html=1;fillColor=#dae8fc;strokeColor=#6c8ebf;" vertex="1" parent="1">
          <mxGeometry x="902.1600000000001" y="390" width="131.5" height="40" as="geometry" />
        </mxCell>
        <mxCell id="B8D3fQR5BTclV4-2yra1-141" value="&lt;span style=&quot;font-size: 13px;&quot;&gt;...&lt;/span&gt;" style="rounded=1;whiteSpace=wrap;html=1;fillColor=#dae8fc;strokeColor=#6c8ebf;" vertex="1" parent="1">
          <mxGeometry x="912.1600000000001" y="420" width="131.5" height="40" as="geometry" />
        </mxCell>
        <mxCell id="B8D3fQR5BTclV4-2yra1-142" value="&lt;span style=&quot;font-size: 13px;&quot;&gt;...&lt;/span&gt;" style="rounded=1;whiteSpace=wrap;html=1;fillColor=#dae8fc;strokeColor=#6c8ebf;" vertex="1" parent="1">
          <mxGeometry x="912.1600000000001" y="420" width="131.5" height="40" as="geometry" />
        </mxCell>
        <mxCell id="B8D3fQR5BTclV4-2yra1-143" value="&lt;span style=&quot;font-size: 13px;&quot;&gt;tosl:licensingType&lt;/span&gt;" style="rounded=1;whiteSpace=wrap;html=1;fillColor=#dae8fc;strokeColor=#6c8ebf;" vertex="1" parent="1">
          <mxGeometry x="912.1600000000001" y="420" width="131.5" height="40" as="geometry" />
        </mxCell>
        <mxCell id="B8D3fQR5BTclV4-2yra1-144" value="&lt;span style=&quot;font-size: 13px;&quot;&gt;...&lt;/span&gt;" style="rounded=1;whiteSpace=wrap;html=1;fillColor=#dae8fc;strokeColor=#6c8ebf;" vertex="1" parent="1">
          <mxGeometry x="922.1600000000001" y="450" width="131.5" height="40" as="geometry" />
        </mxCell>
        <mxCell id="B8D3fQR5BTclV4-2yra1-145" value="&lt;span style=&quot;font-size: 13px;&quot;&gt;...&lt;/span&gt;" style="rounded=1;whiteSpace=wrap;html=1;fillColor=#dae8fc;strokeColor=#6c8ebf;" vertex="1" parent="1">
          <mxGeometry x="922.1600000000001" y="450" width="131.5" height="40" as="geometry" />
        </mxCell>
        <mxCell id="B8D3fQR5BTclV4-2yra1-146" value="&lt;span style=&quot;font-size: 13px;&quot;&gt;...&lt;/span&gt;" style="rounded=1;whiteSpace=wrap;html=1;fillColor=#dae8fc;strokeColor=#6c8ebf;" vertex="1" parent="1">
          <mxGeometry x="922.1600000000001" y="450" width="131.5" height="40" as="geometry" />
        </mxCell>
        <mxCell id="B8D3fQR5BTclV4-2yra1-147" value="&lt;span style=&quot;font-size: 13px;&quot;&gt;tosl:inactivityPeriod&lt;/span&gt;" style="rounded=1;whiteSpace=wrap;html=1;fillColor=#dae8fc;strokeColor=#6c8ebf;" vertex="1" parent="1">
          <mxGeometry x="922.1600000000001" y="450" width="131.5" height="40" as="geometry" />
        </mxCell>
        <mxCell id="B8D3fQR5BTclV4-2yra1-148" value="&lt;span style=&quot;font-size: 13px;&quot;&gt;...&lt;/span&gt;" style="rounded=1;whiteSpace=wrap;html=1;fillColor=#dae8fc;strokeColor=#6c8ebf;" vertex="1" parent="1">
          <mxGeometry x="932.1600000000001" y="480" width="131.5" height="40" as="geometry" />
        </mxCell>
        <mxCell id="B8D3fQR5BTclV4-2yra1-154" value="" style="edgeStyle=orthogonalEdgeStyle;rounded=0;orthogonalLoop=1;jettySize=auto;html=1;endArrow=block;startFill=0;startArrow=none;endFill=0;endSize=8;" edge="1" parent="1" source="B8D3fQR5BTclV4-2yra1-150" target="B8D3fQR5BTclV4-2yra1-40">
          <mxGeometry relative="1" as="geometry">
            <Array as="points">
              <mxPoint x="697" y="475" />
              <mxPoint x="697" y="475" />
            </Array>
          </mxGeometry>
        </mxCell>
        <mxCell id="B8D3fQR5BTclV4-2yra1-150" value="&lt;span style=&quot;font-size: 13px;&quot;&gt;tosl:Provider&lt;/span&gt;" style="rounded=1;whiteSpace=wrap;html=1;fillColor=#dae8fc;strokeColor=#6c8ebf;" vertex="1" parent="1">
          <mxGeometry x="740" y="450" width="125" height="49" as="geometry" />
        </mxCell>
        <mxCell id="B8D3fQR5BTclV4-2yra1-160" style="edgeStyle=orthogonalEdgeStyle;rounded=0;orthogonalLoop=1;jettySize=auto;html=1;endArrow=none;startFill=0;startArrow=block;startSize=8;" edge="1" parent="1" source="B8D3fQR5BTclV4-2yra1-151">
          <mxGeometry relative="1" as="geometry">
            <mxPoint x="811.25" y="560" as="targetPoint" />
          </mxGeometry>
        </mxCell>
        <mxCell id="B8D3fQR5BTclV4-2yra1-151" value="&lt;span style=&quot;font-size: 13px;&quot;&gt;tosl:Customer&lt;/span&gt;" style="rounded=1;whiteSpace=wrap;html=1;fillColor=#dae8fc;strokeColor=#6c8ebf;" vertex="1" parent="1">
          <mxGeometry x="748.75" y="489" width="125" height="49" as="geometry" />
        </mxCell>
        <mxCell id="B8D3fQR5BTclV4-2yra1-157" value="&lt;span style=&quot;font-size: 13px;&quot;&gt;tosl:BusinessCustomer&lt;/span&gt;" style="rounded=1;whiteSpace=wrap;html=1;fillColor=#dae8fc;strokeColor=#6c8ebf;" vertex="1" parent="1">
          <mxGeometry x="740" y="561" width="150" height="49" as="geometry" />
        </mxCell>
        <mxCell id="B8D3fQR5BTclV4-2yra1-161" value="" style="edgeStyle=orthogonalEdgeStyle;rounded=0;orthogonalLoop=1;jettySize=auto;html=1;startArrow=oval;startFill=0;endArrow=none;startSize=8;" edge="1" parent="1" source="B8D3fQR5BTclV4-2yra1-36">
          <mxGeometry relative="1" as="geometry">
            <mxPoint x="889" y="385" as="targetPoint" />
          </mxGeometry>
        </mxCell>
        <mxCell id="B8D3fQR5BTclV4-2yra1-163" value="" style="edgeStyle=orthogonalEdgeStyle;rounded=0;orthogonalLoop=1;jettySize=auto;html=1;endArrow=none;startFill=0;startArrow=oval;endSize=8;startSize=8;" edge="1" parent="1" source="B8D3fQR5BTclV4-2yra1-37">
          <mxGeometry relative="1" as="geometry">
            <mxPoint x="889" y="203" as="targetPoint" />
            <Array as="points">
              <mxPoint x="889" y="203" />
            </Array>
          </mxGeometry>
        </mxCell>
      </root>
    </mxGraphModel>
  </diagram>
</mxfile>
